<svg width="366" height="277" viewBox="0 0 366 277" fill="none" xmlns="http://www.w3.org/2000/svg">
<path fill-rule="evenodd" clip-rule="evenodd" d="M320.683 120.114C326.403 124.443 334.161 126.875 342.25 126.875C346.295 126.875 350.173 128.091 353.033 130.255C355.893 132.42 357.5 135.356 357.5 138.417C357.5 141.478 355.893 144.413 353.033 146.578C350.173 148.742 346.295 149.958 342.25 149.958C334.161 149.958 326.403 152.39 320.683 156.719C314.963 161.048 311.75 166.92 311.75 173.042V207.667C311.75 219.911 305.323 231.654 293.884 240.311C282.444 248.969 266.928 253.833 250.75 253.833C246.705 253.833 242.827 252.617 239.967 250.453C237.107 248.288 235.5 245.353 235.5 242.292C235.5 239.231 237.107 236.295 239.967 234.13C242.827 231.966 246.705 230.75 250.75 230.75C258.839 230.75 266.597 228.318 272.317 223.989C278.037 219.66 281.25 213.789 281.25 207.667V173.042C281.299 166.469 283.202 159.98 286.831 154.009C290.46 148.038 295.733 142.722 302.295 138.417C295.733 134.112 290.46 128.796 286.831 122.824C283.202 116.853 281.299 110.364 281.25 103.792V69.1667C281.25 63.0446 278.037 57.1732 272.317 52.8443C266.597 48.5153 258.839 46.0833 250.75 46.0833C246.705 46.0833 242.827 44.8673 239.967 42.7029C237.107 40.5384 235.5 37.6027 235.5 34.5417C235.5 31.4806 237.107 28.545 239.967 26.3805C242.827 24.216 246.705 23 250.75 23C266.928 23 282.444 27.864 293.884 36.5219C305.323 45.1798 311.75 56.9225 311.75 69.1667V103.792C311.75 109.914 314.963 115.785 320.683 120.114Z" fill="#F45D48"/>
</svg>
