<svg width="366" height="277" viewBox="0 0 366 277" fill="none" xmlns="http://www.w3.org/2000/svg">
<path fill-rule="evenodd" clip-rule="evenodd" d="M107.183 52.8443C101.463 57.1732 98.25 63.0446 98.25 69.1667V103.792C98.201 110.364 96.2982 116.853 92.6689 122.824C89.0396 128.796 83.7674 134.112 77.205 138.417C83.7674 142.722 89.0396 148.038 92.6689 154.009C96.2982 159.98 98.201 166.469 98.25 173.042V207.667C98.25 213.789 101.463 219.66 107.183 223.989C112.903 228.318 120.661 230.75 128.75 230.75C132.795 230.75 136.673 231.966 139.533 234.13C142.393 236.295 144 239.231 144 242.292C144 245.353 142.393 248.288 139.533 250.453C136.673 252.617 132.795 253.833 128.75 253.833C112.572 253.833 97.0562 248.969 85.6165 240.311C74.1768 231.654 67.75 219.911 67.75 207.667V173.042C67.75 166.92 64.5366 161.048 58.8168 156.719C53.0969 152.39 45.3391 149.958 37.25 149.958C33.2054 149.958 29.3266 148.742 26.4666 146.578C23.6067 144.413 22 141.478 22 138.417C22 135.356 23.6067 132.42 26.4666 130.255C29.3266 128.091 33.2054 126.875 37.25 126.875C45.3391 126.875 53.0969 124.443 58.8168 120.114C64.5366 115.785 67.75 109.914 67.75 103.792V69.1667C67.75 56.9225 74.1768 45.1798 85.6165 36.5219C97.0562 27.864 112.572 23 128.75 23C132.795 23 136.673 24.216 139.533 26.3805C142.393 28.545 144 31.4806 144 34.5417C144 37.6027 142.393 40.5384 139.533 42.7029C136.673 44.8673 132.795 46.0833 128.75 46.0833C120.661 46.0833 112.903 48.5153 107.183 52.8443Z" fill="#F45D48"/>
</svg>
