<svg width="112" height="49" viewBox="0 0 112 49" fill="none" xmlns="http://www.w3.org/2000/svg">
<path d="M0.0160002 17V15.392H4.192V1.856H0.0160002V0.248H10.384V1.856H6.208V15.392H10.384V17H0.0160002ZM18.3666 17L13.9266 4.616H15.8706L17.6466 9.8L19.5666 15.392H19.6626L21.5826 9.8L23.3586 4.616H25.2546L20.8146 17H18.3666ZM38.6613 17C37.9093 17 37.3733 16.808 37.0533 16.424C36.7333 16.04 36.5333 15.56 36.4533 14.984H36.3333C36.0613 15.704 35.6213 16.272 35.0133 16.688C34.4213 17.088 33.6213 17.288 32.6133 17.288C31.3173 17.288 30.2853 16.952 29.5173 16.28C28.7493 15.608 28.3652 14.688 28.3652 13.52C28.3652 12.368 28.7813 11.48 29.6133 10.856C30.4613 10.232 31.8213 9.92 33.6933 9.92H36.3333V8.696C36.3333 7.784 36.0773 7.104 35.5653 6.656C35.0533 6.192 34.3253 5.96 33.3813 5.96C32.5493 5.96 31.8693 6.128 31.3413 6.464C30.8133 6.784 30.3893 7.224 30.0693 7.784L28.7733 6.824C28.9333 6.504 29.1493 6.192 29.4213 5.888C29.6933 5.584 30.0293 5.32 30.4293 5.096C30.8293 4.856 31.2853 4.672 31.7973 4.544C32.3093 4.4 32.8773 4.328 33.5013 4.328C34.9573 4.328 36.1093 4.696 36.9573 5.432C37.8213 6.168 38.2533 7.192 38.2533 8.504V15.32H39.9813V17H38.6613ZM32.9492 15.68C33.4453 15.68 33.8933 15.624 34.2933 15.512C34.7093 15.384 35.0693 15.224 35.3733 15.032C35.6773 14.824 35.9093 14.584 36.0693 14.312C36.2453 14.024 36.3333 13.72 36.3333 13.4V11.36H33.6933C32.5413 11.36 31.7013 11.52 31.1733 11.84C30.6453 12.16 30.3813 12.624 30.3813 13.232V13.736C30.3813 14.376 30.6053 14.864 31.0533 15.2C31.5173 15.52 32.1493 15.68 32.9492 15.68ZM43.5239 17V4.616H45.4439V6.632H45.5399C45.6679 6.328 45.8279 6.04 46.0199 5.768C46.2119 5.48 46.4439 5.232 46.7159 5.024C47.0039 4.816 47.3399 4.648 47.7239 4.52C48.1079 4.392 48.5559 4.328 49.0679 4.328C50.3639 4.328 51.4039 4.744 52.1879 5.576C52.9719 6.392 53.3639 7.552 53.3639 9.056V17H51.4439V9.392C51.4439 8.256 51.1959 7.416 50.6999 6.872C50.2039 6.312 49.4759 6.032 48.5159 6.032C48.1319 6.032 47.7559 6.08 47.3879 6.176C47.0199 6.272 46.6919 6.416 46.4039 6.608C46.1159 6.8 45.8839 7.048 45.7079 7.352C45.5319 7.656 45.4439 8.008 45.4439 8.408V17H43.5239ZM67.4425 17C66.6905 17 66.1545 16.808 65.8345 16.424C65.5145 16.04 65.3145 15.56 65.2345 14.984H65.1145C64.8425 15.704 64.4025 16.272 63.7945 16.688C63.2025 17.088 62.4025 17.288 61.3945 17.288C60.0985 17.288 59.0665 16.952 58.2985 16.28C57.5305 15.608 57.1465 14.688 57.1465 13.52C57.1465 12.368 57.5625 11.48 58.3945 10.856C59.2425 10.232 60.6025 9.92 62.4745 9.92H65.1145V8.696C65.1145 7.784 64.8585 7.104 64.3465 6.656C63.8345 6.192 63.1065 5.96 62.1625 5.96C61.3305 5.96 60.6505 6.128 60.1225 6.464C59.5945 6.784 59.1705 7.224 58.8505 7.784L57.5545 6.824C57.7145 6.504 57.9305 6.192 58.2025 5.888C58.4745 5.584 58.8105 5.32 59.2105 5.096C59.6105 4.856 60.0665 4.672 60.5785 4.544C61.0905 4.4 61.6585 4.328 62.2825 4.328C63.7385 4.328 64.8905 4.696 65.7385 5.432C66.6025 6.168 67.0345 7.192 67.0345 8.504V15.32H68.7625V17H67.4425ZM61.7305 15.68C62.2265 15.68 62.6745 15.624 63.0745 15.512C63.4905 15.384 63.8505 15.224 64.1545 15.032C64.4585 14.824 64.6905 14.584 64.8505 14.312C65.0265 14.024 65.1145 13.72 65.1145 13.4V11.36H62.4745C61.3225 11.36 60.4825 11.52 59.9545 11.84C59.4265 12.16 59.1625 12.624 59.1625 13.232V13.736C59.1625 14.376 59.3865 14.864 59.8345 15.2C60.2985 15.52 60.9305 15.68 61.7305 15.68ZM0.16 48V31.248H10.48V33H2.176V38.64H10.192V40.392H2.176V46.248H10.48V48H0.16ZM14.3106 46.368H18.6306V31.872H14.3106V30.24H20.5506V46.368H24.8706V48H14.3106V46.368ZM34.7493 32.88C34.1893 32.88 33.7973 32.768 33.5733 32.544C33.3493 32.304 33.2373 32.008 33.2373 31.656V31.272C33.2373 30.92 33.3493 30.632 33.5733 30.408C33.7973 30.168 34.1893 30.048 34.7493 30.048C35.3093 30.048 35.7013 30.168 35.9253 30.408C36.1493 30.632 36.2613 30.92 36.2613 31.272V31.656C36.2613 32.008 36.1493 32.304 35.9253 32.544C35.7013 32.768 35.3093 32.88 34.7493 32.88ZM29.3253 46.368H33.7893V37.248H29.3253V35.616H35.7093V46.368H39.8853V48H29.3253V46.368ZM53.0519 48C52.2999 48 51.7639 47.808 51.4439 47.424C51.1239 47.04 50.9239 46.56 50.8439 45.984H50.7239C50.4519 46.704 50.0119 47.272 49.4039 47.688C48.8119 48.088 48.0119 48.288 47.0039 48.288C45.7079 48.288 44.6759 47.952 43.9079 47.28C43.1399 46.608 42.7559 45.688 42.7559 44.52C42.7559 43.368 43.1719 42.48 44.0039 41.856C44.8519 41.232 46.2119 40.92 48.0839 40.92H50.7239V39.696C50.7239 38.784 50.4679 38.104 49.9559 37.656C49.4439 37.192 48.7159 36.96 47.7719 36.96C46.9399 36.96 46.2599 37.128 45.7319 37.464C45.2039 37.784 44.7799 38.224 44.4599 38.784L43.1639 37.824C43.3239 37.504 43.5399 37.192 43.8119 36.888C44.0839 36.584 44.4199 36.32 44.8199 36.096C45.2199 35.856 45.6759 35.672 46.1879 35.544C46.6999 35.4 47.2679 35.328 47.8919 35.328C49.3479 35.328 50.4999 35.696 51.3479 36.432C52.2119 37.168 52.6439 38.192 52.6439 39.504V46.32H54.3719V48H53.0519ZM47.3399 46.68C47.8359 46.68 48.2839 46.624 48.6839 46.512C49.0999 46.384 49.4599 46.224 49.7639 46.032C50.0679 45.824 50.2999 45.584 50.4599 45.312C50.6359 45.024 50.7239 44.72 50.7239 44.4V42.36H48.0839C46.9319 42.36 46.0919 42.52 45.5639 42.84C45.0359 43.16 44.7719 43.624 44.7719 44.232V44.736C44.7719 45.376 44.9959 45.864 45.4439 46.2C45.9079 46.52 46.5399 46.68 47.3399 46.68ZM62.9065 48.288C61.6105 48.288 60.4905 48.072 59.5465 47.64C58.6185 47.192 57.8265 46.6 57.1705 45.864L58.4665 44.736C59.0585 45.36 59.7065 45.84 60.4105 46.176C61.1145 46.512 61.9625 46.68 62.9545 46.68C63.9145 46.68 64.6985 46.512 65.3065 46.176C65.9305 45.824 66.2425 45.28 66.2425 44.544C66.2425 44.224 66.1785 43.96 66.0505 43.752C65.9385 43.528 65.7785 43.352 65.5705 43.224C65.3625 43.096 65.1305 43 64.8745 42.936C64.6185 42.856 64.3465 42.792 64.0585 42.744L62.1145 42.456C61.6825 42.392 61.2105 42.304 60.6985 42.192C60.2025 42.08 59.7465 41.904 59.3305 41.664C58.9145 41.408 58.5625 41.072 58.2745 40.656C58.0025 40.24 57.8665 39.696 57.8665 39.024C57.8665 38.4 57.9865 37.864 58.2265 37.416C58.4825 36.952 58.8345 36.568 59.2825 36.264C59.7305 35.944 60.2585 35.712 60.8665 35.568C61.4745 35.408 62.1385 35.328 62.8585 35.328C63.9785 35.328 64.9465 35.504 65.7625 35.856C66.5945 36.208 67.3065 36.696 67.8985 37.32L66.6505 38.496C66.5065 38.32 66.3225 38.144 66.0985 37.968C65.8905 37.776 65.6265 37.608 65.3065 37.464C65.0025 37.304 64.6425 37.176 64.2265 37.08C63.8105 36.984 63.3305 36.936 62.7865 36.936C61.8105 36.936 61.0585 37.104 60.5305 37.44C60.0185 37.776 59.7625 38.264 59.7625 38.904C59.7625 39.224 59.8185 39.496 59.9305 39.72C60.0585 39.928 60.2265 40.096 60.4345 40.224C60.6425 40.352 60.8745 40.456 61.1305 40.536C61.4025 40.6 61.6745 40.656 61.9465 40.704L63.8905 40.992C64.3385 41.056 64.8105 41.144 65.3065 41.256C65.8025 41.368 66.2585 41.552 66.6745 41.808C67.0905 42.048 67.4345 42.376 67.7065 42.792C67.9945 43.208 68.1385 43.752 68.1385 44.424C68.1385 45.656 67.6585 46.608 66.6985 47.28C65.7545 47.952 64.4905 48.288 62.9065 48.288ZM77.1531 48.288C76.2891 48.288 75.5051 48.136 74.8011 47.832C74.1131 47.528 73.5211 47.096 73.0251 46.536C72.5451 45.96 72.1771 45.28 71.9211 44.496C71.6651 43.696 71.5371 42.8 71.5371 41.808C71.5371 40.832 71.6651 39.944 71.9211 39.144C72.1771 38.344 72.5451 37.664 73.0251 37.104C73.5211 36.528 74.1131 36.088 74.8011 35.784C75.5051 35.48 76.2891 35.328 77.1531 35.328C78.0171 35.328 78.7931 35.48 79.4811 35.784C80.1851 36.088 80.7771 36.528 81.2571 37.104C81.7531 37.664 82.1291 38.344 82.3851 39.144C82.6411 39.944 82.7691 40.832 82.7691 41.808C82.7691 42.8 82.6411 43.696 82.3851 44.496C82.1291 45.28 81.7531 45.96 81.2571 46.536C80.7771 47.096 80.1851 47.528 79.4811 47.832C78.7931 48.136 78.0171 48.288 77.1531 48.288ZM77.1531 46.632C78.2251 46.632 79.0891 46.312 79.7451 45.672C80.4011 45.032 80.7291 44.04 80.7291 42.696V40.92C80.7291 39.576 80.4011 38.584 79.7451 37.944C79.0891 37.304 78.2251 36.984 77.1531 36.984C76.0811 36.984 75.2171 37.304 74.5611 37.944C73.9051 38.584 73.5771 39.576 73.5771 40.92V42.696C73.5771 44.04 73.9051 45.032 74.5611 45.672C75.2171 46.312 76.0811 46.632 77.1531 46.632ZM90.3198 48L85.8798 35.616H87.8238L89.5998 40.8L91.5198 46.392H91.6158L93.5358 40.8L95.3118 35.616H97.2078L92.7678 48H90.3198ZM110.614 48C109.862 48 109.326 47.808 109.006 47.424C108.686 47.04 108.486 46.56 108.406 45.984H108.286C108.014 46.704 107.574 47.272 106.966 47.688C106.374 48.088 105.574 48.288 104.566 48.288C103.27 48.288 102.238 47.952 101.47 47.28C100.702 46.608 100.318 45.688 100.318 44.52C100.318 43.368 100.734 42.48 101.566 41.856C102.414 41.232 103.774 40.92 105.646 40.92H108.286V39.696C108.286 38.784 108.03 38.104 107.518 37.656C107.006 37.192 106.278 36.96 105.334 36.96C104.502 36.96 103.822 37.128 103.294 37.464C102.766 37.784 102.342 38.224 102.022 38.784L100.726 37.824C100.886 37.504 101.102 37.192 101.374 36.888C101.646 36.584 101.982 36.32 102.382 36.096C102.782 35.856 103.238 35.672 103.75 35.544C104.262 35.4 104.83 35.328 105.454 35.328C106.91 35.328 108.062 35.696 108.91 36.432C109.774 37.168 110.206 38.192 110.206 39.504V46.32H111.934V48H110.614ZM104.902 46.68C105.398 46.68 105.846 46.624 106.246 46.512C106.662 46.384 107.022 46.224 107.326 46.032C107.63 45.824 107.862 45.584 108.022 45.312C108.198 45.024 108.286 44.72 108.286 44.4V42.36H105.646C104.494 42.36 103.654 42.52 103.126 42.84C102.598 43.16 102.334 43.624 102.334 44.232V44.736C102.334 45.376 102.558 45.864 103.006 46.2C103.47 46.52 104.102 46.68 104.902 46.68Z" fill="#222525"/>
</svg>
