<svg width="199" height="19" viewBox="0 0 199 19" fill="none" xmlns="http://www.w3.org/2000/svg">
<rect width="199" height="19" fill="#F8F5F2"/>
<path d="M0.0160002 18V16.392H4.192V2.856H0.0160002V1.248H10.384V2.856H6.208V16.392H10.384V18H0.0160002ZM18.3666 18L13.9266 5.616H15.8706L17.6466 10.8L19.5666 16.392H19.6626L21.5826 10.8L23.3586 5.616H25.2546L20.8146 18H18.3666ZM38.6613 18C37.9093 18 37.3733 17.808 37.0533 17.424C36.7333 17.04 36.5333 16.56 36.4533 15.984H36.3333C36.0613 16.704 35.6213 17.272 35.0133 17.688C34.4213 18.088 33.6213 18.288 32.6133 18.288C31.3173 18.288 30.2853 17.952 29.5173 17.28C28.7493 16.608 28.3652 15.688 28.3652 14.52C28.3652 13.368 28.7813 12.48 29.6133 11.856C30.4613 11.232 31.8213 10.92 33.6933 10.92H36.3333V9.696C36.3333 8.784 36.0773 8.104 35.5653 7.656C35.0533 7.192 34.3253 6.96 33.3813 6.96C32.5493 6.96 31.8693 7.128 31.3413 7.464C30.8133 7.784 30.3893 8.224 30.0693 8.784L28.7733 7.824C28.9333 7.504 29.1493 7.192 29.4213 6.888C29.6933 6.584 30.0293 6.32 30.4293 6.096C30.8293 5.856 31.2853 5.672 31.7973 5.544C32.3093 5.4 32.8773 5.328 33.5013 5.328C34.9573 5.328 36.1093 5.696 36.9573 6.432C37.8213 7.168 38.2533 8.192 38.2533 9.504V16.32H39.9813V18H38.6613ZM32.9492 16.68C33.4453 16.68 33.8933 16.624 34.2933 16.512C34.7093 16.384 35.0693 16.224 35.3733 16.032C35.6773 15.824 35.9093 15.584 36.0693 15.312C36.2453 15.024 36.3333 14.72 36.3333 14.4V12.36H33.6933C32.5413 12.36 31.7013 12.52 31.1733 12.84C30.6453 13.16 30.3813 13.624 30.3813 14.232V14.736C30.3813 15.376 30.6053 15.864 31.0533 16.2C31.5173 16.52 32.1493 16.68 32.9492 16.68ZM43.5239 18V5.616H45.4439V7.632H45.5399C45.6679 7.328 45.8279 7.04 46.0199 6.768C46.2119 6.48 46.4439 6.232 46.7159 6.024C47.0039 5.816 47.3399 5.648 47.7239 5.52C48.1079 5.392 48.5559 5.328 49.0679 5.328C50.3639 5.328 51.4039 5.744 52.1879 6.576C52.9719 7.392 53.3639 8.552 53.3639 10.056V18H51.4439V10.392C51.4439 9.256 51.1959 8.416 50.6999 7.872C50.2039 7.312 49.4759 7.032 48.5159 7.032C48.1319 7.032 47.7559 7.08 47.3879 7.176C47.0199 7.272 46.6919 7.416 46.4039 7.608C46.1159 7.8 45.8839 8.048 45.7079 8.352C45.5319 8.656 45.4439 9.008 45.4439 9.408V18H43.5239ZM67.4425 18C66.6905 18 66.1545 17.808 65.8345 17.424C65.5145 17.04 65.3145 16.56 65.2345 15.984H65.1145C64.8425 16.704 64.4025 17.272 63.7945 17.688C63.2025 18.088 62.4025 18.288 61.3945 18.288C60.0985 18.288 59.0665 17.952 58.2985 17.28C57.5305 16.608 57.1465 15.688 57.1465 14.52C57.1465 13.368 57.5625 12.48 58.3945 11.856C59.2425 11.232 60.6025 10.92 62.4745 10.92H65.1145V9.696C65.1145 8.784 64.8585 8.104 64.3465 7.656C63.8345 7.192 63.1065 6.96 62.1625 6.96C61.3305 6.96 60.6505 7.128 60.1225 7.464C59.5945 7.784 59.1705 8.224 58.8505 8.784L57.5545 7.824C57.7145 7.504 57.9305 7.192 58.2025 6.888C58.4745 6.584 58.8105 6.32 59.2105 6.096C59.6105 5.856 60.0665 5.672 60.5785 5.544C61.0905 5.4 61.6585 5.328 62.2825 5.328C63.7385 5.328 64.8905 5.696 65.7385 6.432C66.6025 7.168 67.0345 8.192 67.0345 9.504V16.32H68.7625V18H67.4425ZM61.7305 16.68C62.2265 16.68 62.6745 16.624 63.0745 16.512C63.4905 16.384 63.8505 16.224 64.1545 16.032C64.4585 15.824 64.6905 15.584 64.8505 15.312C65.0265 15.024 65.1145 14.72 65.1145 14.4V12.36H62.4745C61.3225 12.36 60.4825 12.52 59.9545 12.84C59.4265 13.16 59.1625 13.624 59.1625 14.232V14.736C59.1625 15.376 59.3865 15.864 59.8345 16.2C60.2985 16.52 60.9305 16.68 61.7305 16.68ZM86.5038 18V1.248H96.8238V3H88.5198V8.64H96.5358V10.392H88.5198V16.248H96.8238V18H86.5038ZM100.654 16.368H104.974V1.872H100.654V0.24H106.894V16.368H111.214V18H100.654V16.368ZM121.093 2.88C120.533 2.88 120.141 2.768 119.917 2.544C119.693 2.304 119.581 2.008 119.581 1.656V1.272C119.581 0.919999 119.693 0.631999 119.917 0.407999C120.141 0.167999 120.533 0.0479994 121.093 0.0479994C121.653 0.0479994 122.045 0.167999 122.269 0.407999C122.493 0.631999 122.605 0.919999 122.605 1.272V1.656C122.605 2.008 122.493 2.304 122.269 2.544C122.045 2.768 121.653 2.88 121.093 2.88ZM115.669 16.368H120.133V7.248H115.669V5.616H122.053V16.368H126.229V18H115.669V16.368ZM139.396 18C138.644 18 138.108 17.808 137.788 17.424C137.468 17.04 137.268 16.56 137.188 15.984H137.068C136.796 16.704 136.356 17.272 135.748 17.688C135.156 18.088 134.356 18.288 133.348 18.288C132.052 18.288 131.02 17.952 130.252 17.28C129.484 16.608 129.1 15.688 129.1 14.52C129.1 13.368 129.516 12.48 130.348 11.856C131.196 11.232 132.556 10.92 134.428 10.92H137.068V9.696C137.068 8.784 136.812 8.104 136.3 7.656C135.788 7.192 135.06 6.96 134.116 6.96C133.284 6.96 132.604 7.128 132.076 7.464C131.548 7.784 131.124 8.224 130.804 8.784L129.508 7.824C129.668 7.504 129.884 7.192 130.156 6.888C130.428 6.584 130.764 6.32 131.164 6.096C131.564 5.856 132.02 5.672 132.532 5.544C133.044 5.4 133.612 5.328 134.236 5.328C135.692 5.328 136.844 5.696 137.692 6.432C138.556 7.168 138.988 8.192 138.988 9.504V16.32H140.716V18H139.396ZM133.684 16.68C134.18 16.68 134.628 16.624 135.028 16.512C135.444 16.384 135.804 16.224 136.108 16.032C136.412 15.824 136.644 15.584 136.804 15.312C136.98 15.024 137.068 14.72 137.068 14.4V12.36H134.428C133.276 12.36 132.436 12.52 131.908 12.84C131.38 13.16 131.116 13.624 131.116 14.232V14.736C131.116 15.376 131.34 15.864 131.788 16.2C132.252 16.52 132.884 16.68 133.684 16.68ZM149.25 18.288C147.954 18.288 146.834 18.072 145.89 17.64C144.962 17.192 144.17 16.6 143.514 15.864L144.81 14.736C145.402 15.36 146.05 15.84 146.754 16.176C147.458 16.512 148.306 16.68 149.298 16.68C150.258 16.68 151.042 16.512 151.65 16.176C152.274 15.824 152.586 15.28 152.586 14.544C152.586 14.224 152.522 13.96 152.394 13.752C152.282 13.528 152.122 13.352 151.914 13.224C151.706 13.096 151.474 13 151.218 12.936C150.962 12.856 150.69 12.792 150.402 12.744L148.458 12.456C148.026 12.392 147.554 12.304 147.042 12.192C146.546 12.08 146.09 11.904 145.674 11.664C145.258 11.408 144.906 11.072 144.618 10.656C144.346 10.24 144.21 9.696 144.21 9.024C144.21 8.4 144.33 7.864 144.57 7.416C144.826 6.952 145.178 6.568 145.626 6.264C146.074 5.944 146.602 5.712 147.21 5.568C147.818 5.408 148.482 5.328 149.202 5.328C150.322 5.328 151.29 5.504 152.106 5.856C152.938 6.208 153.65 6.696 154.242 7.32L152.994 8.496C152.85 8.32 152.666 8.144 152.442 7.968C152.234 7.776 151.97 7.608 151.65 7.464C151.346 7.304 150.986 7.176 150.57 7.08C150.154 6.984 149.674 6.936 149.13 6.936C148.154 6.936 147.402 7.104 146.874 7.44C146.362 7.776 146.106 8.264 146.106 8.904C146.106 9.224 146.162 9.496 146.274 9.72C146.402 9.928 146.57 10.096 146.778 10.224C146.986 10.352 147.218 10.456 147.474 10.536C147.746 10.6 148.018 10.656 148.29 10.704L150.234 10.992C150.682 11.056 151.154 11.144 151.65 11.256C152.146 11.368 152.602 11.552 153.018 11.808C153.434 12.048 153.778 12.376 154.05 12.792C154.338 13.208 154.482 13.752 154.482 14.424C154.482 15.656 154.002 16.608 153.042 17.28C152.098 17.952 150.834 18.288 149.25 18.288ZM163.497 18.288C162.633 18.288 161.849 18.136 161.145 17.832C160.457 17.528 159.865 17.096 159.369 16.536C158.889 15.96 158.521 15.28 158.265 14.496C158.009 13.696 157.881 12.8 157.881 11.808C157.881 10.832 158.009 9.944 158.265 9.144C158.521 8.344 158.889 7.664 159.369 7.104C159.865 6.528 160.457 6.088 161.145 5.784C161.849 5.48 162.633 5.328 163.497 5.328C164.361 5.328 165.137 5.48 165.825 5.784C166.529 6.088 167.121 6.528 167.601 7.104C168.097 7.664 168.473 8.344 168.729 9.144C168.985 9.944 169.113 10.832 169.113 11.808C169.113 12.8 168.985 13.696 168.729 14.496C168.473 15.28 168.097 15.96 167.601 16.536C167.121 17.096 166.529 17.528 165.825 17.832C165.137 18.136 164.361 18.288 163.497 18.288ZM163.497 16.632C164.569 16.632 165.433 16.312 166.089 15.672C166.745 15.032 167.073 14.04 167.073 12.696V10.92C167.073 9.576 166.745 8.584 166.089 7.944C165.433 7.304 164.569 6.984 163.497 6.984C162.425 6.984 161.561 7.304 160.905 7.944C160.249 8.584 159.921 9.576 159.921 10.92V12.696C159.921 14.04 160.249 15.032 160.905 15.672C161.561 16.312 162.425 16.632 163.497 16.632ZM176.664 18L172.224 5.616H174.168L175.944 10.8L177.864 16.392H177.96L179.88 10.8L181.656 5.616H183.552L179.112 18H176.664ZM196.958 18C196.206 18 195.67 17.808 195.35 17.424C195.03 17.04 194.83 16.56 194.75 15.984H194.63C194.358 16.704 193.918 17.272 193.31 17.688C192.718 18.088 191.918 18.288 190.91 18.288C189.614 18.288 188.582 17.952 187.814 17.28C187.046 16.608 186.662 15.688 186.662 14.52C186.662 13.368 187.078 12.48 187.91 11.856C188.758 11.232 190.118 10.92 191.99 10.92H194.63V9.696C194.63 8.784 194.374 8.104 193.862 7.656C193.35 7.192 192.622 6.96 191.678 6.96C190.846 6.96 190.166 7.128 189.638 7.464C189.11 7.784 188.686 8.224 188.366 8.784L187.07 7.824C187.23 7.504 187.446 7.192 187.718 6.888C187.99 6.584 188.326 6.32 188.726 6.096C189.126 5.856 189.582 5.672 190.094 5.544C190.606 5.4 191.174 5.328 191.798 5.328C193.254 5.328 194.406 5.696 195.254 6.432C196.118 7.168 196.55 8.192 196.55 9.504V16.32H198.278V18H196.958ZM191.246 16.68C191.742 16.68 192.19 16.624 192.59 16.512C193.006 16.384 193.366 16.224 193.67 16.032C193.974 15.824 194.206 15.584 194.366 15.312C194.542 15.024 194.63 14.72 194.63 14.4V12.36H191.99C190.838 12.36 189.998 12.52 189.47 12.84C188.942 13.16 188.678 13.624 188.678 14.232V14.736C188.678 15.376 188.902 15.864 189.35 16.2C189.814 16.52 190.446 16.68 191.246 16.68Z" fill="#222525"/>
</svg>
